<?xml version="1.0" encoding="UTF-8" standalone="no"?>
<!-- Created with Inkscape (http://www.inkscape.org/) -->
<svg xmlns:dc="http://purl.org/dc/elements/1.1/" xmlns:cc="http://web.resource.org/cc/" xmlns:rdf="http://www.w3.org/1999/02/22-rdf-syntax-ns#" xmlns:svg="http://www.w3.org/2000/svg" xmlns="http://www.w3.org/2000/svg" xmlns:sodipodi="http://sodipodi.sourceforge.net/DTD/sodipodi-0.dtd" xmlns:inkscape="http://www.inkscape.org/namespaces/inkscape" id="svg9928" sodipodi:version="0.32" inkscape:version="0.45" width="160.15088" height="239.53552" version="1.0" sodipodi:docbase="C:\Documents and Settings\Sigurd\Mine dokumenter\Mine bilder" sodipodi:docname="Monogram.jpg" sodipodi:modified="true">
  <metadata id="metadata9933">
    <rdf:RDF>
      <cc:Work rdf:about="">
        <dc:format>image/svg+xml</dc:format>
        <dc:type rdf:resource="http://purl.org/dc/dcmitype/StillImage"/>
      </cc:Work>
    </rdf:RDF>
  </metadata>
  <defs id="defs9931"/>
  <sodipodi:namedview inkscape:window-height="583" inkscape:window-width="776" inkscape:pageshadow="2" inkscape:pageopacity="0.0" guidetolerance="10.0" gridtolerance="10.0" objecttolerance="10.0" borderopacity="1.0" bordercolor="#666666" pagecolor="#ffffff" id="base" inkscape:zoom="1.4612403" inkscape:cx="87.5" inkscape:cy="129" inkscape:window-x="66" inkscape:window-y="66" inkscape:current-layer="svg9928"/>
  <g id="g10039" transform="matrix(0.8444967,0,0,0.8444967,13.287217,19.124071)">
    <path sodipodi:nodetypes="csccsscsssssssc" id="path1929" d="M 70.630048,57.87632 C 70.630048,57.87632 70.630048,46.129458 67.367031,42.213837 C 64.104014,38.298216 75.524575,43.519044 75.524575,43.519044 L 85.96623,28.509164 C 85.96623,28.509164 81.724308,154.13534 83.682118,168.81891 C 85.639928,183.50249 103.91283,185.78661 110.11256,185.4603 C 116.31228,185.134 110.76516,187.41811 110.76516,187.41811 C 110.76516,187.41811 99.220027,196.5034 82.376911,187.74441 C 80.269814,186.64866 81.398107,188.04608 80.408382,189.50136 C 79.030238,191.52776 77.69505,194.25906 76.829781,199.16498 C 75.694847,205.59984 65.082918,233.42665 48.115227,227.55323 C 31.147538,221.6798 45.831116,211.89075 49.094133,213.84855 C 52.357151,215.80636 56.925375,216.45897 55.94647,222.6587 C 54.967565,228.85844 69.324842,211.89075 69.324842,182.19728 C 69.324842,152.50382 70.630048,57.87632 70.630048,57.87632 z " style="fill:#000000;fill-opacity:1;fill-rule:evenodd;stroke:#000000;stroke-width:1.16052604px;stroke-linecap:butt;stroke-linejoin:miter;stroke-opacity:1"/>
    <path transform="matrix(1.160526,0,0,1.160526,-12.90319,-6.731428)" d="M 105.71882 39.503979 A 2.6710875 2.6710875 0 1 1  100.37665,39.503979 A 2.6710875 2.6710875 0 1 1  105.71882 39.503979 z" sodipodi:ry="2.6710875" sodipodi:rx="2.6710875" sodipodi:cy="39.503979" sodipodi:cx="103.04774" id="path1931" style="fill:#000000;fill-opacity:1;stroke:#000000;stroke-width:0.815;stroke-linecap:square;stroke-linejoin:bevel;stroke-miterlimit:4;stroke-dasharray:none;stroke-opacity:1" sodipodi:type="arc"/>
    <path transform="matrix(1.160526,0,0,1.160526,-7.519207,-1.347449)" d="M 105.71882 39.503979 A 2.6710875 2.6710875 0 1 1  100.37665,39.503979 A 2.6710875 2.6710875 0 1 1  105.71882 39.503979 z" sodipodi:ry="2.6710875" sodipodi:rx="2.6710875" sodipodi:cy="39.503979" sodipodi:cx="103.04774" id="path1933" style="fill:#000000;fill-opacity:1;stroke:#000000;stroke-width:0.815;stroke-linecap:square;stroke-linejoin:bevel;stroke-miterlimit:4;stroke-dasharray:none;stroke-opacity:1" sodipodi:type="arc"/>
    <path transform="matrix(1.160526,0,0,1.160526,-18.36877,-1.755329)" d="M 105.71882 39.503979 A 2.6710875 2.6710875 0 1 1  100.37665,39.503979 A 2.6710875 2.6710875 0 1 1  105.71882 39.503979 z" sodipodi:ry="2.6710875" sodipodi:rx="2.6710875" sodipodi:cy="39.503979" sodipodi:cx="103.04774" id="path1935" style="fill:#000000;fill-opacity:1;stroke:#000000;stroke-width:0.815;stroke-linecap:square;stroke-linejoin:bevel;stroke-miterlimit:4;stroke-dasharray:none;stroke-opacity:1" sodipodi:type="arc"/>
    <path transform="matrix(1.160526,0,0,1.160526,-12.98473,3.628661)" d="M 105.71882 39.503979 A 2.6710875 2.6710875 0 1 1  100.37665,39.503979 A 2.6710875 2.6710875 0 1 1  105.71882 39.503979 z" sodipodi:ry="2.6710875" sodipodi:rx="2.6710875" sodipodi:cy="39.503979" sodipodi:cx="103.04774" id="path1937" style="fill:#000000;fill-opacity:1;stroke:#000000;stroke-width:0.815;stroke-linecap:square;stroke-linejoin:bevel;stroke-miterlimit:4;stroke-dasharray:none;stroke-opacity:1" sodipodi:type="arc"/>
    <path transform="matrix(1.160526,0,0,1.160526,-74.69658,126.6035)" d="M 105.71882 39.503979 A 2.6710875 2.6710875 0 1 1  100.37665,39.503979 A 2.6710875 2.6710875 0 1 1  105.71882 39.503979 z" sodipodi:ry="2.6710875" sodipodi:rx="2.6710875" sodipodi:cy="39.503979" sodipodi:cx="103.04774" id="path1939" style="fill:#000000;fill-opacity:1;stroke:#000000;stroke-width:0.815;stroke-linecap:square;stroke-linejoin:bevel;stroke-miterlimit:4;stroke-dasharray:none;stroke-opacity:1" sodipodi:type="arc"/>
    <path transform="matrix(1.160526,0,0,1.160526,-69.3126,131.9876)" d="M 105.71882 39.503979 A 2.6710875 2.6710875 0 1 1  100.37665,39.503979 A 2.6710875 2.6710875 0 1 1  105.71882 39.503979 z" sodipodi:ry="2.6710875" sodipodi:rx="2.6710875" sodipodi:cy="39.503979" sodipodi:cx="103.04774" id="path1941" style="fill:#000000;fill-opacity:1;stroke:#000000;stroke-width:0.815;stroke-linecap:square;stroke-linejoin:bevel;stroke-miterlimit:4;stroke-dasharray:none;stroke-opacity:1" sodipodi:type="arc"/>
    <path transform="matrix(1.160526,0,0,1.160526,-80.16216,131.5796)" d="M 105.71882 39.503979 A 2.6710875 2.6710875 0 1 1  100.37665,39.503979 A 2.6710875 2.6710875 0 1 1  105.71882 39.503979 z" sodipodi:ry="2.6710875" sodipodi:rx="2.6710875" sodipodi:cy="39.503979" sodipodi:cx="103.04774" id="path1943" style="fill:#000000;fill-opacity:1;stroke:#000000;stroke-width:0.815;stroke-linecap:square;stroke-linejoin:bevel;stroke-miterlimit:4;stroke-dasharray:none;stroke-opacity:1" sodipodi:type="arc"/>
    <path transform="matrix(1.160526,0,0,1.160526,-74.77812,136.9637)" d="M 105.71882 39.503979 A 2.6710875 2.6710875 0 1 1  100.37665,39.503979 A 2.6710875 2.6710875 0 1 1  105.71882 39.503979 z" sodipodi:ry="2.6710875" sodipodi:rx="2.6710875" sodipodi:cy="39.503979" sodipodi:cx="103.04774" id="path1945" style="fill:#000000;fill-opacity:1;stroke:#000000;stroke-width:0.815;stroke-linecap:square;stroke-linejoin:bevel;stroke-miterlimit:4;stroke-dasharray:none;stroke-opacity:1" sodipodi:type="arc"/>
    <path sodipodi:nodetypes="csssccc" id="path1965" d="M 85.313627,56.897415 C 85.313627,56.897415 127.8394,60.490031 131.97476,54.287001 C 135.89039,48.413571 135.6247,71.782522 158.40521,84.633063 C 171.13098,91.811702 135.17057,76.146763 128.38545,67.665373 C 124.46983,62.770847 83.029514,63.097148 83.029514,63.097148 L 80.092799,57.223717 L 85.313627,56.897415 z " style="fill:#000000;fill-opacity:1;fill-rule:evenodd;stroke:#000000;stroke-width:1.16052604px;stroke-linecap:butt;stroke-linejoin:miter;stroke-opacity:1"/>
    <path sodipodi:nodetypes="csssccc" id="path1967" d="M 70.676539,56.609781 C 70.676539,56.609781 29.129659,58.244586 24.994299,52.041556 C 21.078672,46.168126 27.544097,60.72693 4.7635866,73.577471 C -7.9621849,80.75611 22.451093,73.575016 29.236213,65.093627 C 33.151839,60.1991 72.960651,62.809514 72.960651,62.809514 L 75.897367,56.936083 L 70.676539,56.609781 z " style="fill:#000000;fill-opacity:1;fill-rule:evenodd;stroke:#000000;stroke-width:1.16052604px;stroke-linecap:butt;stroke-linejoin:miter;stroke-opacity:1"/>
    <path sodipodi:nodetypes="csssc" id="path1969" d="M 75.198272,33.077388 C 75.198272,33.077388 81.398006,19.372715 85.313627,18.720111 C 89.229247,18.067507 92.377579,8.4577628 91.839661,7.9521541 C 91.087798,7.2454508 84.987325,18.393809 78.46129,17.741206 C 71.935255,17.088603 67.367031,26.551353 75.198272,33.077388 z " style="fill:#000000;fill-opacity:1;fill-rule:evenodd;stroke:#000000;stroke-width:1.16052604px;stroke-linecap:butt;stroke-linejoin:miter;stroke-opacity:1"/>
    <path sodipodi:nodetypes="csssscssscssc" id="path2863" d="M 84.987325,69.296881 C 84.987325,69.296881 122.18572,67.339072 119.9016,92.464305 C 117.61749,117.58954 93.978033,114.16684 86.618833,112.69501 C 86.346263,112.6405 87.418515,112.33833 89.19676,114.31913 C 100.54506,126.96011 130.75925,153.72219 145.67944,154.78793 C 150.24766,155.11424 145.35315,156.09314 145.35315,156.09314 C 145.35315,156.09314 132.45436,160.13263 117.2303,151.07504 C 111.65222,147.75634 107.15478,140.87713 101.71188,134.51581 C 70.876906,98.477853 87.853263,123.865 84.334722,114.65282 C 66.388126,67.665373 85.313627,107.47418 85.313627,107.47418 C 85.313627,107.47418 109.58561,116.3263 108.80736,91.811702 C 108.15475,71.580994 94.123773,74.517709 87.271436,74.517709 C 80.4191,74.517709 86.292532,69.623183 84.987325,69.296881 z " style="fill:#000000;fill-opacity:1;fill-rule:evenodd;stroke:#000000;stroke-width:1.16052604px;stroke-linecap:butt;stroke-linejoin:miter;stroke-opacity:1"/>
    <path sodipodi:nodetypes="csssscsssscssc" id="path3758" d="M 71.002513,67.88686 C 71.002513,67.88686 31.846303,65.92905 34.130416,91.054284 C 36.414528,116.17952 62.011806,112.75683 69.371005,111.28499 C 69.643576,111.23048 66.947153,109.62972 65.16157,111.6039 C 31.29845,149.04382 20.336051,143.50203 5.4158648,144.56777 C 0.84763995,144.89408 5.4158567,145.22037 5.4158567,145.22037 C 5.4158567,145.22037 11.846011,147.37501 17.842121,150.05938 C 27.747407,154.49386 28.413629,155.72632 40.064732,147.38091 C 45.341439,143.60133 48.835062,139.46711 54.277959,133.10579 C 85.112932,97.067831 68.136576,122.45498 71.655116,113.24281 C 89.601712,66.255351 70.676212,106.06415 70.676212,106.06415 C 70.676212,106.06415 44.120123,114.91629 44.898371,90.40168 C 45.550981,70.170972 61.866066,73.107688 68.718402,73.107688 C 75.570738,73.107688 69.697307,68.213161 71.002513,67.88686 z " style="fill:#000000;fill-opacity:1;fill-rule:evenodd;stroke:#000000;stroke-width:1.16052604px;stroke-linecap:butt;stroke-linejoin:miter;stroke-opacity:1"/>
  </g>
  <path sodipodi:type="arc" style="opacity:1;fill:none;fill-opacity:1;fill-rule:nonzero;stroke:#000000;stroke-width:2.13858151;stroke-linejoin:round;stroke-miterlimit:4;stroke-dasharray:none;stroke-opacity:1" id="path10055" sodipodi:cx="83.490715" sodipodi:cy="129.34218" sodipodi:rx="83.490715" sodipodi:ry="120.44563" d="M 166.98143 129.34218 A 83.490715 120.44563 0 1 1  0,129.34218 A 83.490715 120.44563 0 1 1  166.98143 129.34218 z" transform="matrix(0.9305393,0,0,0.9689457,2.3840436,-5.5577791)"/>
</svg>